<svg width="50" height="62" viewBox="0 0 50 62" fill="none" xmlns="http://www.w3.org/2000/svg">
<path d="M13.7943 28.0284H35.8701V19.7468C35.8701 16.6993 34.7923 14.0978 32.6368 11.9423C30.4812 9.7867 27.8797 8.70893 24.8322 8.70893C21.7847 8.70893 19.1832 9.7867 17.0276 11.9423C14.8721 14.0978 13.7943 16.6993 13.7943 19.7468V28.0284ZM49.6644 32.166V56.9982C49.6644 58.1503 49.2618 59.1228 48.4565 59.928C47.6513 60.7333 46.6726 61.1359 45.5267 61.1359H4.13767C2.98556 61.1359 2.01309 60.7333 1.20785 59.928C0.402617 59.1228 0 58.1441 0 56.9982V32.166C0 31.0139 0.402617 30.0414 1.20785 29.2362C2.01309 28.431 2.99176 28.0284 4.13767 28.0284H5.51895V19.7468C5.51895 14.4571 7.41435 9.91678 11.2113 6.12598C15.0021 2.32899 19.5424 0.433594 24.8322 0.433594C30.122 0.433594 34.6623 2.32899 38.4531 6.12598C42.25 9.92297 44.1454 14.4633 44.1454 19.7468V28.0222H45.5267C46.6788 28.0222 47.6513 28.4248 48.4565 29.23C49.2618 30.0353 49.6644 31.0139 49.6644 32.166Z" fill="#868484"/>
</svg>
