<svg width="69" height="70" viewBox="0 0 69 70" fill="none" xmlns="http://www.w3.org/2000/svg">
<g filter="url(#filter0_d)">
<path d="M32.7125 0.542048C28.3438 1.14597 24.4365 3.59698 22.0394 7.23726C20.3521 9.77685 19.5531 12.4942 19.5531 15.6198C19.5531 22.4042 23.8685 28.1226 30.4752 30.1295C31.8961 30.5556 32.3576 30.6089 34.6488 30.6089C36.94 30.6089 37.4014 30.5556 38.8224 30.1295C42.9068 28.8863 46.1568 26.2222 48.0392 22.564C49.1585 20.3973 49.584 18.8165 49.6912 16.2416C49.8863 11.7837 48.3768 7.87712 45.2865 4.85749C43.8123 3.41921 42.8355 2.72609 41.1129 1.90971C38.5381 0.71982 35.3233 0.187125 32.7125 0.542048Z" fill="#868484"/>
<path d="M30.2974 38.4768C30.0131 38.5121 28.8411 38.6719 27.7225 38.8317C18.6475 40.0749 10.6379 44.586 5.80708 51.1567C4.22634 53.2881 4.26227 53.1636 4.31554 57.3193L4.36881 61.0134H34.6487H64.9286L64.9819 57.3193C65.0352 53.0924 65.0885 53.3055 63.2946 50.8724C58.6596 44.6387 50.8451 40.27 41.6636 38.7958C39.9763 38.53 31.6471 38.299 30.2974 38.4768Z" fill="#868484"/>
</g>
<defs>
<filter id="filter0_d" x="0.297729" y="0.433594" width="68.7023" height="68.5799" filterUnits="userSpaceOnUse" color-interpolation-filters="sRGB">
<feFlood flood-opacity="0" result="BackgroundImageFix"/>
<feColorMatrix in="SourceAlpha" type="matrix" values="0 0 0 0 0 0 0 0 0 0 0 0 0 0 0 0 0 0 127 0"/>
<feOffset dy="4"/>
<feGaussianBlur stdDeviation="2"/>
<feColorMatrix type="matrix" values="0 0 0 0 0 0 0 0 0 0 0 0 0 0 0 0 0 0 0.25 0"/>
<feBlend mode="normal" in2="BackgroundImageFix" result="effect1_dropShadow"/>
<feBlend mode="normal" in="SourceGraphic" in2="effect1_dropShadow" result="shape"/>
</filter>
</defs>
</svg>
